<svg id="football" xmlns="http://www.w3.org/2000/svg" width="21.176" height="21.176" viewBox="0 0 21.176 21.176">
  <path id="Path_179" data-name="Path 179" d="M161.768,26.993l.727-2.247a8.373,8.373,0,0,0-4.439-3.2l-1.89,1.363v2.73l3.028,2.188Z" transform="translate(-143.83 -20.193)" fill="#fff"/>
  <path id="Path_180" data-name="Path 180" d="M195.7,124.955l-1.921-1.4-2.662.865-1.127,3.463,1.636,2.252,2.386,0a8.273,8.273,0,0,0,1.69-5.019C195.7,125.067,195.7,125.011,195.7,124.955Z" transform="translate(-175.532 -114.171)" fill="#fff"/>
  <path id="Path_181" data-name="Path 181" d="M20.574,123.808l-2.677-.87L16,124.315q0,.114,0,.228a8.273,8.273,0,0,0,1.647,4.963l2.368.007,1.668-2.3Z" transform="translate(-14.996 -113.601)" fill="#fff"/>
  <path id="Path_182" data-name="Path 182" d="M43.031,27.8l2.977-2.168V22.9L44.14,21.54A8.336,8.336,0,0,0,39.7,24.76l.707,2.187Z" transform="translate(-37.21 -20.188)" fill="#fff"/>
  <path id="Path_183" data-name="Path 183" d="M94.491,200.5l-1.675,2.305.741,2.278a8.32,8.32,0,0,0,5.431.027l.743-2.279L98.037,200.5Z" transform="translate(-85.731 -185.381)" fill="#fff"/>
  <path id="Path_184" data-name="Path 184" d="M10.588,0A10.588,10.588,0,1,0,21.176,10.588,10.6,10.6,0,0,0,10.588,0Zm.547,3.084,2.147-1.548a9.5,9.5,0,0,1,5.037,3.636l-.823,2.553-2.922.946L11.135,6.185ZM7.872,1.536,9.994,3.084v3.1L6.612,8.647,3.637,7.679,2.828,5.194A9.477,9.477,0,0,1,7.872,1.536Zm-4.86,14.69a9.4,9.4,0,0,1-1.871-5.638q0-.13,0-.259L3.3,8.765l3.041.988L7.6,13.626,5.7,16.234Zm10.617,3.307A9.452,9.452,0,0,1,7.46,19.5l-.842-2.588L8.52,14.3h4.029l1.924,2.648ZM15.4,16.284l-1.858-2.558,1.28-3.935,3.024-.983L20.033,10.4c0,.063,0,.126,0,.19a9.4,9.4,0,0,1-1.919,5.7Z"/>
</svg>
