<svg id="sports_rugby-24px" xmlns="http://www.w3.org/2000/svg" width="24" height="24" viewBox="0 0 24 24">
  <defs>
    <style>
      .cls-1 {
        fill: none;
      }

      .cls-2 {
        fill: #00b1ff;
      }
    </style>
  </defs>
  <g id="Group_52" data-name="Group 52">
    <rect id="Rectangle_14" data-name="Rectangle 14" class="cls-1" width="24" height="24"/>
  </g>
  <g id="Group_54" data-name="Group 54">
    <g id="Group_53" data-name="Group 53">
      <path id="Path_37" data-name="Path 37" class="cls-2" d="M20.49,3.51c-.56-.56-2.15-.97-4.16-.97A14.368,14.368,0,0,0,6.35,6.33C1.66,11.03,2.1,19.07,3.51,20.49c.56.56,2.15.97,4.16.97a14.368,14.368,0,0,0,9.98-3.79C22.34,12.97,21.9,4.93,20.49,3.51ZM7.76,7.76a12.323,12.323,0,0,1,8.03-3.19A23,23,0,0,0,9.18,9.18a23.462,23.462,0,0,0-4.62,6.63A12.13,12.13,0,0,1,7.76,7.76Zm8.48,8.48a12.323,12.323,0,0,1-8.03,3.19,23,23,0,0,0,6.61-4.61,23.462,23.462,0,0,0,4.62-6.63A12.13,12.13,0,0,1,16.24,16.24Z"/>
    </g>
  </g>
</svg>
