<svg id="sports_tennis-24px" xmlns="http://www.w3.org/2000/svg" width="24" height="24" viewBox="0 0 24 24">
  <defs>
    <style>
      .cls-1 {
        fill: none;
      }

      .cls-2 {
        fill: #bcff00;
      }
    </style>
  </defs>
  <g id="Group_58" data-name="Group 58">
    <rect id="Rectangle_16" data-name="Rectangle 16" class="cls-1" width="24" height="24"/>
  </g>
  <g id="Group_59" data-name="Group 59">
    <path id="Path_39" data-name="Path 39" class="cls-2" d="M19.52,2.49C17.18.15,12.9.62,9.97,3.55A8.674,8.674,0,0,0,7.43,9.01c-.02,1.58.26,3.89-1.35,5.5L1.84,18.75l1.42,1.42L7.5,15.93c1.61-1.61,3.92-1.33,5.5-1.35a8.7,8.7,0,0,0,5.46-2.54C21.38,9.11,21.86,4.83,19.52,2.49Zm-9.2,9.19c-1.53-1.53-1.05-4.61,1.06-6.72S16.56,2.37,18.1,3.9s1.05,4.61-1.06,6.72S11.86,13.21,10.32,11.68Z"/>
    <path id="Path_40" data-name="Path 40" class="cls-2" d="M18,17a1.966,1.966,0,0,1,1.41.59A2,2,0,0,1,18,21a1.966,1.966,0,0,1-1.41-.59A2,2,0,0,1,18,17m0-2a4,4,0,1,0,2.83,1.17A4,4,0,0,0,18,15Z"/>
  </g>
</svg>
