<svg id="sports_soccer-24px" xmlns="http://www.w3.org/2000/svg" width="24" height="24" viewBox="0 0 24 24">
  <defs>
    <style>
      .cls-1 {
        fill: none;
      }

      .cls-2 {
        fill: #d2d2d2;
      }
    </style>
  </defs>
  <g id="Group_55" data-name="Group 55">
    <rect id="Rectangle_15" data-name="Rectangle 15" class="cls-1" width="24" height="24"/>
  </g>
  <g id="Group_57" data-name="Group 57">
    <g id="Group_56" data-name="Group 56">
      <path id="Path_38" data-name="Path 38" class="cls-2" d="M12,2A10,10,0,1,0,22,12,10,10,0,0,0,12,2Zm1,3.3,1.35-.95a8.01,8.01,0,0,1,4.38,3.34l-.39,1.34-1.35.46L13,6.7ZM9.65,4.35,11,5.3V6.7L7.01,9.49,5.66,9.03,5.27,7.69A8.1,8.1,0,0,1,9.65,4.35ZM7.08,17.11l-1.14.1A7.938,7.938,0,0,1,4,12c0-.12.01-.23.02-.35l1-.73,1.38.48,1.46,4.34Zm7.42,2.48a7.827,7.827,0,0,1-5,0L8.81,18.1,9.45,17h5.11l.64,1.11ZM14.27,15H9.73L8.38,10.98,12,8.44l3.63,2.54Zm3.79,2.21-1.14-.1-.79-1.37,1.46-4.34,1.39-.47,1,.73c.01.11.02.22.02.34A7.938,7.938,0,0,1,18.06,17.21Z"/>
    </g>
  </g>
</svg>
