<svg id="sports_football-24px" xmlns="http://www.w3.org/2000/svg" width="24" height="24" viewBox="0 0 24 24">
  <defs>
    <style>
      .cls-1 {
        fill: none;
      }

      .cls-2 {
        fill: #874903;
      }
    </style>
  </defs>
  <g id="Group_30" data-name="Group 30">
    <rect id="Rectangle_7" data-name="Rectangle 7" class="cls-1" width="24" height="24"/>
  </g>
  <g id="Group_32" data-name="Group 32">
    <g id="Group_31" data-name="Group 31">
      <path id="Path_18" data-name="Path 18" class="cls-2" d="M3.02,15.62c-.08,2.42.32,4.34.67,4.69s2.28.76,4.69.67Z"/>
      <path id="Path_19" data-name="Path 19" class="cls-2" d="M13.08,3.28A12.292,12.292,0,0,0,6.46,6.46a12.4,12.4,0,0,0-3.18,6.62l7.63,7.63a12.188,12.188,0,0,0,6.62-3.18,12.4,12.4,0,0,0,3.18-6.62ZM9.9,15.5,8.5,14.1l5.6-5.6,1.4,1.4Z"/>
      <path id="Path_20" data-name="Path 20" class="cls-2" d="M20.98,8.38c.08-2.42-.32-4.34-.67-4.69s-2.28-.76-4.69-.67Z"/>
    </g>
  </g>
</svg>
